<svg width="45" height="43" viewBox="0 0 45 43" fill="none" xmlns="http://www.w3.org/2000/svg">
<path d="M43.8061 7.37136L23.2867 0.605158C22.9357 0.489524 22.5562 0.489524 22.2052 0.605158L1.71867 7.36052L1.71659 7.36124L1.68582 7.37136C1.6798 7.37332 1.6745 7.37657 1.6685 7.37864C1.59445 7.40387 1.52227 7.43416 1.45246 7.46929C1.44445 7.47331 1.43613 7.47672 1.4282 7.48085C1.35905 7.51738 1.29253 7.55859 1.22912 7.60418C1.21513 7.61409 1.20154 7.62431 1.18789 7.63463C1.12622 7.68082 1.06776 7.73106 1.01289 7.785C1.00781 7.79011 1.0034 7.79569 0.998386 7.8008C0.947773 7.85295 0.900582 7.90825 0.857102 7.96636C0.848204 7.97813 0.838993 7.98959 0.830435 8.00162C0.78556 8.06436 0.745059 8.13005 0.709213 8.19824C0.703681 8.20878 0.698934 8.21956 0.693609 8.2302C0.660159 8.29702 0.631229 8.36597 0.607011 8.43658C0.604741 8.44324 0.601924 8.44954 0.599733 8.45625C0.575592 8.53135 0.556821 8.60805 0.543557 8.68576C0.540712 8.70197 0.538416 8.71813 0.536076 8.73439C0.523765 8.81443 0.517256 8.89523 0.516602 8.97619V25.8917C0.516602 26.3403 0.696756 26.7706 1.01743 27.0878C1.33811 27.405 1.77304 27.5833 2.22655 27.5833C2.68006 27.5833 3.11499 27.405 3.43567 27.0878C3.75635 26.7706 3.9365 26.3403 3.9365 25.8917V11.3232L11.1151 13.6903C9.21206 16.7301 8.60308 20.3917 9.42136 23.8744C10.2396 27.3572 12.4186 30.3777 15.4818 32.2757C11.4029 33.8014 7.92234 36.5745 5.54615 40.1916C5.42324 40.3777 5.3386 40.5859 5.29708 40.8044C5.25556 41.0228 5.25797 41.2472 5.30417 41.4647C5.35037 41.6823 5.43946 41.8886 5.56634 42.0721C5.69323 42.2555 5.85542 42.4124 6.04364 42.5338C6.23186 42.6552 6.44243 42.7388 6.66329 42.7796C6.88416 42.8205 7.111 42.8178 7.33085 42.7719C7.5507 42.726 7.75923 42.6376 7.94454 42.5119C8.12985 42.3862 8.2883 42.2256 8.41082 42.0393C9.9643 39.6784 12.0891 37.7385 14.5924 36.3956C17.0956 35.0528 19.8982 34.3495 22.7459 34.3495C25.5936 34.3495 28.3962 35.0528 30.8994 36.3956C33.4027 37.7385 35.5275 39.6784 37.081 42.0393C37.2036 42.2254 37.3621 42.3857 37.5474 42.5112C37.7327 42.6367 37.9411 42.7248 38.1609 42.7706C38.3806 42.8164 38.6073 42.8189 38.828 42.778C39.0487 42.7372 39.2591 42.6537 39.4472 42.5324C39.6353 42.4111 39.7974 42.2543 39.9242 42.071C40.0511 41.8877 40.1402 41.6815 40.1865 41.4641C40.2328 41.2468 40.2353 41.0225 40.194 40.8042C40.1527 40.5858 40.0683 40.3777 39.9456 40.1916C37.5695 36.5745 34.089 33.8015 30.0101 32.2757C33.0733 30.3778 35.2523 27.3572 36.0705 23.8745C36.8888 20.3917 36.2798 16.7301 34.3768 13.6903L43.8061 10.581C44.1466 10.4687 44.4427 10.2533 44.6525 9.96529C44.8624 9.67727 44.9753 9.33123 44.9753 8.97619C44.9753 8.62115 44.8624 8.27511 44.6525 7.98709C44.4427 7.69906 44.1466 7.48365 43.8061 7.37136ZM22.746 30.9664C20.8484 30.9667 18.9879 30.4463 17.3714 29.4631C15.755 28.48 14.4459 27.0725 13.5897 25.3973C12.7335 23.722 12.3639 21.8447 12.5219 19.9741C12.6798 18.1034 13.3592 16.3128 14.4845 14.8013L22.2052 17.3472C22.5562 17.4629 22.9357 17.4629 23.2867 17.3472L31.0074 14.8013C32.1327 16.3128 32.8121 18.1034 32.97 19.9741C33.128 21.8447 32.7584 23.722 31.9022 25.3973C31.046 27.0725 29.7369 28.48 28.1205 29.4631C26.504 30.4463 24.6435 30.9667 22.746 30.9664Z" fill="#006865"/>
</svg>
