<svg width="60" height="60" viewBox="0 0 60 60" fill="none" xmlns="http://www.w3.org/2000/svg">
<path d="M20.1561 10.6028C18.3729 10.6028 16.9253 12.0504 16.9253 13.8336V14.1195H12.5222C10.739 14.1195 9.30566 15.5672 9.30566 17.3504V48.4293C9.30566 50.2125 10.739 51.6602 12.5222 51.6602H41.5997C43.383 51.6602 44.8163 50.2125 44.8163 48.4293V42.5252L39.4411 49.43C39.3036 49.6082 39.1066 49.7309 38.886 49.7755C38.6654 49.8201 38.4362 49.7838 38.2402 49.673L38.1402 49.6159C38.1004 49.5948 38.0622 49.5709 38.0258 49.5444L34.5234 46.8139L34.1231 46.4994H17.4685C17.0521 46.4994 16.7109 46.1582 16.7109 45.7417V44.6124C16.7109 44.1959 17.0521 43.869 17.4685 43.869H30.735L26.7751 40.7954C26.6362 40.6839 26.5321 40.5351 26.4748 40.3665H17.4685C17.0521 40.3665 16.7109 40.0253 16.7109 39.6088V38.4938C16.7109 38.0773 17.0521 37.7361 17.4685 37.7361H27.9616L29.4055 35.8777C29.4804 35.7798 29.5739 35.6976 29.6806 35.636C29.7873 35.5743 29.9052 35.5344 30.0274 35.5185C30.1496 35.5025 30.2738 35.5109 30.3928 35.5431C30.5118 35.5753 30.6232 35.6307 30.7207 35.7061L37.7256 41.1528L44.8163 32.0464V17.3504C44.8163 15.5672 43.383 14.1195 41.5997 14.1195H37.1967V13.8336C37.1967 12.0504 35.749 10.6028 33.9658 10.6028H20.1561ZM19.7559 13.319H34.3661V16.6928C34.3661 18.1032 35.2681 19.2846 36.5248 19.7235H17.5972C18.8538 19.2846 19.7559 18.1032 19.7559 16.6928V13.319ZM15.5958 19.9236H15.8245C15.7461 19.9508 15.6712 19.9764 15.5958 20.0094V19.9236ZM38.2974 19.9236H38.5262V20.0094C38.4507 19.9764 38.3758 19.9508 38.2974 19.9236ZM17.4685 25.4704H27.447C27.8634 25.4704 28.2046 25.7973 28.2046 26.2137V27.3574C28.2046 27.7739 27.8634 28.1151 27.447 28.1151H17.4685C17.0521 28.1151 16.7109 27.7739 16.7109 27.3574V26.2137C16.7109 25.7973 17.0521 25.4704 17.4685 25.4704ZM48.0328 29.4446L37.8971 42.468L30.1489 36.4495L27.3469 40.0377L35.1095 46.0562L38.6119 48.7867L38.6977 48.8582L51.6354 32.2465L48.0328 29.4446ZM17.4685 31.6032H36.6534C37.0699 31.6032 37.4111 31.9444 37.4111 32.3609V33.4903C37.4111 33.9067 37.0699 34.2336 36.6534 34.2336H17.4685C17.0521 34.2336 16.7109 33.9067 16.7109 33.4903V32.3609C16.7109 31.9444 17.0521 31.6032 17.4685 31.6032Z" fill="#006865"/>
</svg>
