<svg width="35" height="36" viewBox="0 0 35 36" fill="none" xmlns="http://www.w3.org/2000/svg">
<path d="M31.475 27.7059H20.0461L26.664 34.3238L25.0248 35.9631L17.3699 28.3082L9.60065 35.9631L7.9614 34.3238L14.526 27.7592H3.25715C1.55691 27.7897 0.161643 26.4021 0.192141 24.6942V6.70065C0.192141 5.03853 1.54166 3.69663 3.19615 3.69663H6.74912L8.71621 0.578255C8.84583 0.372398 9.07456 0.250408 9.31854 0.250408C9.58539 0.227535 9.837 0.357147 9.97424 0.578255L11.9413 3.69663H22.3334L24.3005 0.578255C24.4453 0.357147 24.697 0.227535 24.9562 0.250408C25.2307 0.250408 25.4441 0.364773 25.5585 0.578255L27.5256 3.69663H31.4598C33.1219 3.69663 34.4638 5.04616 34.4638 6.70065V24.7552C34.4562 26.3868 33.1143 27.7059 31.475 27.7059Z" fill="#006865"/>
</svg>
