<svg width="38" height="33" viewBox="0 0 38 33" fill="none" xmlns="http://www.w3.org/2000/svg">
<path d="M37.7222 9.05657V15.6079C32.5711 17.5191 26.1742 18.611 19.2881 18.611C12.402 18.611 6.00514 17.5191 0.854004 15.6079V9.05657C0.854004 7.85462 1.83079 6.87279 3.02272 6.87279H11.9682V5.23409C11.9682 2.72187 14.0294 0.593994 16.5763 0.593994H21.9981C24.5468 0.593994 26.6062 2.72361 26.6062 5.23409V6.87279H35.5517C36.7454 6.87279 37.7222 7.85636 37.7222 9.05657ZM14.68 5.23409V6.87279H23.8979V5.23409C23.8979 4.19635 23.0304 3.32284 21.9999 3.32284H16.5781C15.5475 3.32284 14.68 4.19635 14.68 5.23409ZM16.5781 15.2253V16.3172C16.5781 16.6456 16.7949 16.864 17.1211 16.864H21.4586C21.7847 16.864 22.0016 16.6456 22.0016 16.3172V15.2253C22.0016 14.8969 21.7847 14.6785 21.4586 14.6785H17.1211C16.7949 14.6785 16.5781 14.8969 16.5781 15.2253ZM0.854004 29.8566V17.9542C6.05892 19.7553 12.402 20.7931 19.2881 20.7931C26.1742 20.7931 32.5173 19.7553 37.7222 17.9542V29.8566C37.7222 31.0586 36.7454 32.0404 35.5535 32.0404H3.02272C1.82906 32.0404 0.854004 31.0568 0.854004 29.8566ZM21.9999 24.233V23.1411C21.9999 22.8126 21.783 22.5942 21.4568 22.5942H17.1194C16.7932 22.5942 16.5763 22.8126 16.5763 23.1411V24.233C16.5763 24.5614 16.7932 24.7798 17.1194 24.7798H21.4568C21.783 24.7798 21.9999 24.5614 21.9999 24.233Z" fill="#006865"/>
</svg>
