<svg width="54" height="37" viewBox="0 0 54 37" fill="none" xmlns="http://www.w3.org/2000/svg">
<path d="M28.7977 11.6919L25.6692 8.15216C25.4604 7.91581 25.0995 7.89354 24.863 8.10235C24.6268 8.31126 24.6044 8.67225 24.8133 8.9085L27.2976 11.7194L22.529 10.1594C22.2774 10.0771 22.0066 10.2143 21.9243 10.466L21.1917 12.7055C22.6431 12.622 24.0786 13.3725 24.8001 14.743C25.7844 16.6129 25.0664 18.9269 23.1964 19.9113L22.1212 20.4771L25.3687 21.5393C25.6203 21.6217 25.891 21.4844 25.9733 21.2327L28.9125 12.2475L28.9104 12.2468C28.971 12.0608 28.9366 11.8491 28.7977 11.6919Z" fill="#006865"/>
<path d="M10.5436 10.7409C13.0667 10.7409 15.1121 8.69553 15.1121 6.1724C15.1121 3.64928 13.0667 1.60388 10.5436 1.60388C8.02049 1.60388 5.9751 3.64928 5.9751 6.1724C5.9751 8.69553 8.02049 10.7409 10.5436 10.7409Z" fill="#006865"/>
<path d="M23.2456 15.561C22.7133 14.5495 21.4615 14.1608 20.4499 14.6933L15.0404 17.5406C14.2508 17.1552 8.76626 14.4783 7.88082 14.0461L12.8257 15.1598C12.5228 13.5269 11.1036 12.3376 9.44249 12.3257L6.25408 12.3028C4.32674 12.289 2.75785 13.852 2.76314 15.7783C2.79343 27.2606 2.80228 27.8321 2.84386 28.642C2.85463 30.2016 3.37726 30.9351 4.52457 31.316L5.47467 31.6314H3.45198C2.0802 31.6318 0.968262 32.7439 0.968262 34.1155C0.968262 35.4872 2.0802 36.5992 3.45198 36.5992H16.3552C17.9377 36.5992 19.2697 35.4653 19.5224 33.9032C19.775 32.3409 18.8683 30.8448 17.3661 30.3459L12.6794 28.7897L12.7661 23.283L7.17846 18.3097C10.5399 19.9503 10.8537 20.1035 14.1441 21.7094C14.7216 22.0002 15.4262 22.0156 16.0399 21.6926L22.3781 18.3565C23.3897 17.8242 23.7781 16.5725 23.2456 15.561Z" fill="#006865"/>
<path d="M51.3807 33.3255H50.0476C51.0303 32.9991 50.5244 33.1672 50.6779 33.1159C51.6959 32.7749 51.8025 31.9983 51.8123 31.0234L51.8346 22.8773C51.838 21.6759 50.9025 20.6541 49.6626 20.5923C49.6251 20.5904 48.3425 20.5335 46.8889 20.6743C45.792 20.7805 45.1487 21.9002 45.1649 22.9221L45.2017 25.2565L48.0325 22.383L45.3088 26.872C45.3088 26.872 42.1425 27.1477 41.2952 27.2215C40.5402 27.2873 39.9888 27.9541 40.0547 28.6988C40.1203 29.4542 40.7894 30.0042 41.532 29.9394C41.532 29.9394 46.2394 29.5296 46.2395 29.5294C46.6303 29.5016 47.0513 29.2708 47.2914 28.864L49.9416 24.4958L48.5264 29.5668C48.4247 29.9314 48.3627 30.4273 48.0396 30.5426L42.2107 32.4779C41.2212 32.8064 40.623 33.7921 40.7896 34.8228C40.9548 35.8416 41.8289 36.5993 42.877 36.5993H51.3809C52.285 36.5993 53.0178 35.8663 53.0178 34.9623C53.0176 34.0583 52.2847 33.3255 51.3807 33.3255Z" fill="#006865"/>
<path d="M49.7025 9.15819C49.2704 8.72807 48.6842 8.48836 48.0744 8.49273L45.9732 8.50778C45.3639 8.51215 44.7816 8.75959 44.3558 9.1954C43.9298 9.631 43.6958 10.2188 43.7054 10.828L43.7657 14.6653C44.4194 12.9362 46.0776 11.7147 48.0287 11.7147C48.8567 11.7147 49.6663 11.9436 50.3708 12.3675L50.3752 10.7833C50.3768 10.1736 50.1346 9.58841 49.7025 9.15819Z" fill="#006865"/>
<path d="M46.5651 7.58199C48.4482 7.58199 49.9748 6.05545 49.9748 4.17237C49.9748 2.28929 48.4482 0.762756 46.5651 0.762756C44.6821 0.762756 43.1555 2.28929 43.1555 4.17237C43.1555 6.05545 44.6821 7.58199 46.5651 7.58199Z" fill="#006865"/>
<path d="M37.6035 15.1011C39.4865 15.1011 41.0131 13.5746 41.0131 11.6915C41.0131 9.8084 39.4865 8.28186 37.6035 8.28186C35.7204 8.28186 34.1938 9.8084 34.1938 11.6915C34.1938 13.5746 35.7204 15.1011 37.6035 15.1011Z" fill="#006865"/>
<path d="M45.411 19.9929C45.069 19.7531 44.7647 19.4722 44.495 19.1409C44.215 18.7969 43.9876 18.4136 43.8185 18.0043L43.8399 19.3584L41.4082 20.1659L41.4134 18.3019C41.4151 17.6922 41.1728 17.107 40.7407 16.6768C40.3086 16.2465 39.7224 16.007 39.1126 16.0114L37.0114 16.0264C36.4021 16.0308 35.8199 16.2782 35.394 16.714C34.968 17.1498 34.734 17.7375 34.7436 18.3466L34.7804 20.6811L37.6112 17.8075L34.8874 22.2966C32.3809 22.5148 33.2812 22.4365 30.8738 22.6461C30.1636 22.708 29.628 23.3035 29.6279 24.0033C29.6279 24.7666 30.247 25.3693 30.9906 25.3692C31.0897 25.3692 35.8158 24.9549 35.8181 24.954C35.8191 24.9541 35.82 24.9539 35.8208 24.9538C36.2656 24.9127 36.6514 24.6594 36.8701 24.2885L39.5202 19.9206L38.2159 24.9448C38.1142 25.3093 37.9495 25.8395 37.6181 25.9672C34.1987 27.1026 35.6265 26.6284 31.7892 27.9026C30.7989 28.2314 30.2014 29.2176 30.3681 30.2467C30.5345 31.2765 31.4124 32.0239 32.4555 32.0239H40.569C41.1766 31.4564 41.741 31.31 42.2622 31.1369C41.5937 31.1951 41.5607 31.2009 41.4117 31.2009C40.0431 31.2009 38.9215 30.172 38.803 28.8095C38.6795 27.4197 39.6504 26.191 41.0324 25.9903C41.1794 25.969 41.0986 25.9773 41.3925 25.9517L41.3965 24.5044C41.5108 24.5057 40.8444 24.5053 43.9335 24.5053L43.9088 22.9417C43.891 21.815 44.4237 20.6853 45.411 19.9929Z" fill="#006865"/>
<path d="M51.3948 15.7522C51.1371 14.0652 49.6841 12.8569 48.0285 12.8569C45.9279 12.8569 44.3396 14.7256 44.6537 16.7819C44.9114 18.4689 46.3644 19.6771 48.02 19.6771C50.1204 19.6771 51.7087 17.8084 51.3948 15.7522Z" fill="#006865"/>
</svg>
