<!-- sample rectangle -->
<svg width="42" height="47" viewBox="0 0 42 47" fill="none" xmlns="http://www.w3.org/2000/svg">
<path d="M34.3608 0.9104H7.25185C3.50178 0.9104 0.474609 3.91498 0.474609 7.61987V32.2664C0.474609 35.9713 3.50178 38.9759 7.25185 38.9759H8.96875C10.776 38.9759 12.4929 39.6762 13.758 40.9413L17.621 44.7591C19.3831 46.4986 22.2521 46.4986 24.0142 44.7591L27.8773 40.9413C29.1423 39.6762 30.8818 38.9759 32.6665 38.9759H34.3608C38.1109 38.9759 41.1381 35.9713 41.1381 32.2664V7.61987C41.1381 3.91498 38.1109 0.9104 34.3608 0.9104ZM17.1466 25.7829C18.0728 25.7829 18.8409 26.551 18.8409 27.4772C18.8409 28.4034 18.0728 29.1715 17.1466 29.1715H11.0923C10.0983 29.1715 9.17207 28.6971 8.58471 27.8838C8.01994 27.1157 7.88439 26.1669 8.15548 25.2633C8.94616 22.8461 10.889 21.5358 12.6059 20.3611C14.4131 19.1412 15.4297 18.3731 15.4297 17.0628C15.4297 15.8881 14.4809 14.9393 13.3062 14.9393C12.1315 14.9393 11.2052 15.9107 11.2052 17.0854C11.2052 18.0116 10.4372 18.7797 9.51093 18.7797C8.58471 18.7797 7.81662 18.0116 7.81662 17.0854C7.81662 14.0582 10.279 11.5733 13.3288 11.5733C16.3785 11.5733 18.8409 14.0357 18.8409 17.0854C18.8409 20.2707 16.4463 21.8973 14.5261 23.2075C13.3288 24.0208 12.1992 24.7889 11.6345 25.8055H17.1466V25.7829ZM32.1017 25.941H31.6273V27.4998C31.6273 28.426 30.8592 29.1941 29.933 29.1941C29.0068 29.1941 28.2387 28.426 28.2387 27.4998V25.941H23.8109C23.8109 25.941 23.8109 25.941 23.7883 25.941C22.6814 25.941 21.6648 25.3536 21.1 24.4048C20.5352 23.4334 20.5352 22.2361 21.1 21.2873C22.6362 18.6442 24.4209 15.6396 26.0474 13.0191C26.7703 11.8669 28.1483 11.3474 29.436 11.7088C30.7237 12.0928 31.6273 13.2676 31.6047 14.623V22.575H32.1017C33.028 22.575 33.796 23.3431 33.796 24.2693C33.796 25.1955 33.028 25.941 32.1017 25.941Z" fill="#006865"/>
<path d="M28.2366 22.5535V15.9119C26.9037 18.0806 25.5257 20.4074 24.2832 22.5309H28.2366V22.5535Z" fill="#006865"/>
</svg>
