<svg width="123" height="123" viewBox="0 0 123 123" fill="none" xmlns="http://www.w3.org/2000/svg">
<g clip-path="url(#clip0_20_247)">
<path d="M119.834 51.4119C113.347 28.2139 97.3452 11.3741 81.7905 11.3741C80.5412 11.3741 79.293 11.4828 78.077 11.6978C77.737 11.7571 77.4132 11.8869 77.1265 12.0791C76.8398 12.2712 76.5965 12.5213 76.4124 12.8132C76.2283 13.1051 76.1075 13.4324 76.0577 13.7739C76.0079 14.1154 76.0302 14.4636 76.1233 14.7959L79.3251 26.2491C79.4792 26.7833 79.8073 27.2508 80.2573 27.5774C80.7072 27.904 81.2534 28.0711 81.8091 28.052L82.0636 28.0471C87.8322 28.0471 98.3746 36.6926 103.749 55.9076C103.962 56.6701 104.163 57.4499 104.357 58.263C98.3239 55.2774 91.1268 54.5866 84.6093 56.4019C69.9061 60.5158 61.2927 75.8221 65.4029 90.5229C68.7346 102.434 79.6922 110.756 92.0499 110.756C94.5672 110.756 97.0807 110.409 99.5214 109.726C109.217 107.015 116.507 98.9657 120.049 87.0639C123.246 76.3263 123.165 63.3321 119.834 51.4119ZM17.67 11.3765C16.4231 11.3765 15.1737 11.4828 13.9589 11.6978C13.6189 11.7571 13.2951 11.8869 13.0084 12.0791C12.7217 12.2712 12.4785 12.5213 12.2944 12.8132C12.1103 13.1051 11.9894 13.4324 11.9396 13.7739C11.8898 14.1154 11.9121 14.4636 12.0052 14.7959L15.2083 26.2491C15.5172 27.3551 16.5639 28.1027 17.6922 28.052L17.9443 28.0471C23.7129 28.0471 34.2565 36.6926 39.6309 55.9076C39.8447 56.675 40.0461 57.4548 40.2389 58.263C34.2034 55.2774 27.0087 54.5866 20.4912 56.4019C5.79047 60.5158 -2.82534 75.8221 1.28731 90.5229C4.61896 102.434 15.5766 110.756 27.9343 110.756C30.4516 110.756 32.9651 110.409 35.407 109.726C45.1017 107.015 52.3915 98.9657 55.9344 87.0639C59.1301 76.3263 59.0511 63.3309 55.7182 51.4094C49.2279 28.2139 33.2283 11.3765 17.67 11.3765Z" fill="#C8BFB0"/>
</g>
<defs>
<clipPath id="clip0_20_247">
<rect width="122.13" height="122.13" fill="white" transform="translate(0.260742)"/>
</clipPath>
</defs>
</svg>
