<svg width="66" height="66" viewBox="0 0 66 66" fill="none" xmlns="http://www.w3.org/2000/svg">
<path d="M38.0196 38.9891C35.7356 27.2273 24.9607 21.8821 13.9643 23.965C15.2251 17.3658 21.4033 11.97 25.4179 6.95411C25.9873 6.24283 26.2807 4.99193 25.4179 4.32168C23.3015 2.67753 21.3264 2.16561 19.5068 2.42516C19.3806 2.07978 19.0465 1.82228 18.6126 1.95873C12.1539 3.99237 7.97139 10.8915 5.17312 16.6091C1.48062 24.1555 -0.37179 32.8916 0.0621594 41.2772C0.746425 54.4974 12.5499 67.1035 26.6056 63.4332C36.8668 60.7539 39.7793 48.0518 38.0196 38.9891ZM11.7207 49.568C11.7217 49.5636 11.7244 49.5608 11.7255 49.5567C11.7897 49.3088 11.8448 49.0585 11.9033 48.8085C12.0996 49.0637 12.2721 49.3364 12.4186 49.6231C12.1775 49.6545 11.9429 49.6747 11.7186 49.6795C11.7172 49.6405 11.722 49.6056 11.7207 49.568ZM8.74765 18.5432C8.91844 18.6162 9.09958 18.662 9.28453 18.679C8.73386 19.7796 8.22949 20.9028 7.77271 22.0456C7.59169 21.9922 7.40403 21.9648 7.21532 21.9642C7.6797 20.8049 8.19948 19.6679 8.74765 18.5432ZM7.33774 52.1013C7.78641 52.5617 8.25668 53.0006 8.74696 53.4165C8.67368 53.5117 8.61021 53.6142 8.55752 53.7222C8.11775 53.2075 7.70261 52.6727 7.33774 52.1013ZM20.0149 52.0558C19.4487 51.3165 19.0209 50.5002 18.7521 49.6087C18.7443 49.5395 18.7226 49.4725 18.6885 49.4117C18.6037 49.1007 18.5403 48.7842 18.4987 48.4645C19.4275 49.727 20.174 51.1332 20.8664 52.5544C20.5669 52.4165 20.2817 52.2495 20.0149 52.0558Z" fill="#006865"/>
<path d="M40.1614 21.838C41.4044 16.8173 44.7946 13.3515 47.2575 8.8236C47.6579 8.08736 47.5006 6.94247 46.6621 6.55298C45.1291 5.84067 43.7513 5.0504 42.2186 4.46393C41.7546 3.47464 40.3539 2.82525 39.2815 3.79163C37.3854 5.50042 35.3151 7.69205 33.661 10.1405C31.4677 12.8311 29.8926 16.0968 29.3694 19.238C29.3075 19.6101 29.3718 19.9873 29.5175 20.3313C29.4385 20.4684 29.3592 20.6038 29.2798 20.7413C28.8794 21.4352 29.1075 22.3677 29.8116 22.7695C38.1602 27.5296 41.6137 35.2805 41.3678 43.4472C40.9452 44.6386 40.8378 45.9254 40.9989 47.2191C40.3231 51.3288 38.7758 55.4439 36.4904 59.2445C35.9768 60.0984 36.1683 60.8975 36.6696 61.4392C36.8009 61.8667 37.146 62.2281 37.7663 62.3683C51.0761 65.3749 64.4663 59.0051 65.9104 44.4834C67.2544 30.9704 53.1778 19.5824 40.1614 21.838ZM45.2248 59.3888C45.2717 59.3447 45.3134 59.2961 45.3596 59.251C46.5814 59.1563 47.6982 58.8129 48.6472 58.2607C48.6581 58.3079 48.6653 58.3513 48.6766 58.3988C48.7074 58.5291 48.7737 58.6279 48.8267 58.7394C47.6432 59.042 46.4395 59.259 45.2248 59.3888ZM54.6654 33.9834C54.5392 34.215 54.4284 34.4475 54.3169 34.6804C54.308 34.6154 54.3067 34.5484 54.2967 34.4834C54.3135 34.0026 54.3983 33.5071 54.5289 33.002C54.5429 33.0116 54.5587 33.0198 54.5727 33.0294C54.6397 33.3077 54.6944 33.5916 54.7372 33.8805C54.715 33.9161 54.6862 33.9458 54.6654 33.9834ZM61.0242 48.5558C61.0293 48.2385 61.0242 47.9187 61.0129 47.5969C61.2231 47.2441 61.4115 46.8788 61.5771 46.503C61.4431 47.2215 61.2478 47.8986 61.0242 48.5558Z" fill="black" fill-opacity="0.2"/>
</svg>
