<svg width="41" height="37" viewBox="0 0 41 37" fill="none" xmlns="http://www.w3.org/2000/svg">
<path d="M40.7007 17.3043C40.6087 17.1997 38.4053 14.7127 34.8371 12.204C25.3357 5.52338 16.0454 5.25536 6.16275 12.204C2.59462 14.7127 0.391275 17.1997 0.299266 17.3043C0.106389 17.5236 0 17.8056 0 18.0976C0 18.3897 0.106389 18.6717 0.299266 18.891C0.391275 18.9956 2.59462 21.4826 6.16283 23.9913C15.6643 30.6719 24.9545 30.9399 34.8372 23.9913C38.4054 21.4826 40.6087 18.9956 40.7008 18.891C40.8936 18.6717 41 18.3897 41 18.0976C41 17.8056 40.8936 17.5236 40.7007 17.3043ZM29.2242 18.0976C29.2242 22.8825 25.2784 26.7187 20.5 26.7187C15.7137 26.7187 11.7758 22.8745 11.7758 18.0976C11.7758 13.3128 15.7216 9.4766 20.5 9.4766C25.2863 9.4766 29.2242 13.3208 29.2242 18.0976ZM2.86241 18.0976C5.23368 15.728 8.20074 13.4735 11.3046 11.898C8.75351 15.6002 8.70411 20.5234 11.3046 24.2973C8.1852 22.714 5.21951 20.4529 2.86241 18.0976ZM29.6952 24.2973C32.2464 20.5951 32.2958 15.6719 29.6952 11.898C32.8147 13.4813 35.7804 15.7424 38.1375 18.0976C35.7712 20.462 32.8054 22.7187 29.6952 24.2973Z" fill="#006865"/>
<path d="M21.7011 16.8965H22.4048L20.5 18.8013L18.9449 17.2463C18.4763 16.7775 17.7152 16.7772 17.2462 17.2463L14.8645 19.6281C14.3954 20.0972 14.3954 20.8577 14.8645 21.3268C15.3335 21.796 16.0941 21.7958 16.5632 21.3268L18.0956 19.7943L19.6507 21.3493C20.1198 21.8184 20.8803 21.8184 21.3494 21.3493L24.1035 18.5952V18.8984C24.1035 19.5618 24.6413 20.0996 25.3047 20.0996C25.968 20.0996 26.5058 19.5618 26.5058 18.8984V15.6953C26.5058 15.0319 25.968 14.4941 25.3047 14.4941H21.7011C21.0378 14.4941 20.5 15.0319 20.5 15.6953C20.5 16.3587 21.0378 16.8965 21.7011 16.8965ZM20.5 4.80469C21.1633 4.80469 21.7011 4.26688 21.7011 3.60352V1.20117C21.7011 0.537805 21.1633 0 20.5 0C19.8366 0 19.2988 0.537805 19.2988 1.20117V3.60352C19.2988 4.26688 19.8366 4.80469 20.5 4.80469ZM28.3476 6.90746C28.9196 7.23778 29.6553 7.04495 29.9884 6.46783L31.1896 4.3874C31.5214 3.81292 31.3245 3.0782 30.75 2.7466C30.1755 2.41476 29.4408 2.61159 29.1092 3.18623L27.908 5.26666C27.5762 5.84114 27.7731 6.57578 28.3476 6.90746ZM20.5 31.3105C19.8366 31.3105 19.2988 31.8484 19.2988 32.5117V34.9941C19.2988 35.6575 19.8366 36.1953 20.5 36.1953C21.1633 36.1953 21.7011 35.6575 21.7011 34.9941V32.5117C21.7011 31.8484 21.1633 31.3105 20.5 31.3105ZM29.9484 29.6581C29.6166 29.0836 28.8821 28.8867 28.3076 29.2185C27.733 29.5502 27.5362 30.2847 27.868 30.8593L29.1092 33.0092C29.4419 33.5855 30.1772 33.7796 30.75 33.4488C31.3245 33.1171 31.5214 32.3826 31.1896 31.808L29.9484 29.6581ZM11.0115 6.46783C11.3442 7.04415 12.0795 7.23826 12.6523 6.90746C13.2269 6.57578 13.4237 5.84114 13.0919 5.26666L11.8908 3.18623C11.559 2.61159 10.8245 2.41484 10.25 2.7466C9.67541 3.07828 9.47858 3.81292 9.81035 4.3874L11.0115 6.46783ZM12.6924 29.2185C12.1179 28.8866 11.3832 29.0837 11.0516 29.6581L9.81035 31.808C9.47858 32.3826 9.67541 33.1172 10.25 33.4488C10.8222 33.7793 11.5577 33.586 11.8908 33.0092L13.132 30.8593C13.4638 30.2848 13.2669 29.5502 12.6924 29.2185Z" fill="#006865"/>
</svg>
