<svg width="94" height="94" viewBox="0 0 94 94" fill="none" xmlns="http://www.w3.org/2000/svg">
<g clip-path="url(#clip0_20_327)">
<path d="M0 94L6.4827 70.5C2.26904 63.2069 0 55.1035 0 46.6758C0 21.069 21.069 0 46.8379 0C72.6067 0 94 21.069 94 46.6758C94 72.2825 72.6069 94 46.8379 94C38.7344 94 30.9552 91.4069 23.9862 87.5173L0 94Z" fill="#EDEDED"/>
<path d="M25.2828 79.0896L26.7414 79.9C32.7379 83.6275 39.707 85.8965 47.0001 85.8965C68.231 85.8965 85.8966 68.231 85.8966 46.6758C85.8966 25.1206 68.231 8.10345 46.8379 8.10345C25.4449 8.10345 8.10352 25.2827 8.10352 46.6758C8.10352 54.131 10.2104 61.424 14.1001 67.5827L15.0726 69.0413L11.345 82.6552L25.2828 79.0896Z" fill="#006865"/>
<path d="M34.3587 24.9587L31.2795 24.7965C30.307 24.7965 29.3347 25.1208 28.6864 25.769C27.2277 27.0656 24.7968 29.4965 24.1485 32.7381C23.0141 37.6002 24.7968 43.4346 29.0106 49.269C33.2245 55.1035 41.3279 64.5035 55.5898 68.5552C60.1277 69.8517 63.6933 69.0413 66.6106 67.2587C68.8797 65.8 70.3381 63.5311 70.8245 61.1L71.3106 58.831C71.4727 58.1827 71.1485 57.3723 70.5002 57.0483L60.2898 52.3483C59.6416 52.024 58.8312 52.1862 58.345 52.8344L54.2933 58.0206C53.9691 58.3448 53.4829 58.5067 52.9968 58.3448C50.2416 57.3723 41.0037 53.4827 35.9795 43.7587C35.8174 43.2725 35.8174 42.7862 36.1416 42.4621L40.0312 38.0863C40.3554 37.6002 40.5174 36.9519 40.3554 36.4656L35.6554 25.9312C35.4931 25.4448 35.007 24.9587 34.3587 24.9587Z" fill="#FEFEFE"/>
</g>
<defs>
<clipPath id="clip0_20_327">
<rect width="94" height="94" fill="white"/>
</clipPath>
</defs>
</svg>
